# xmcd
#
# Track frame offsets:
# 150
# 15910
# 33252
# 57380
# 71530
# 87072
# 99540
# 115232
# 128597
# 144332
# 156007
# 170585
# 186767
# 202025
# 215692
# 233912
# 248930
# 264037
# 276287
# 290572
# 304435
#
# Disc length: 4255 seconds
#
#
# Revision: 4
# Processed by: cddbd v1.5.2PL0 Copyright (c) Steve Scherf et al.
# Submitted via: FreeRIP 2.951 
#
DISCID=2c109d15
DTITLE=Nando Cordel - 20 Super Sucessos
DYEAR=1998
DGENRE=MPB
TTITLE0=Minha Fraqueza É Você
TTITLE1=É De Dar Água Na Boca
TTITLE2=De Volta Pro Aconchego
TTITLE3=Enfeitiçou Meu Coração
TTITLE4=Amor Imenso
TTITLE5=Isso É Que É Bom
TTITLE6=Mel E Aveloz
TTITLE7=Forro Do Pega Rela
TTITLE8=Minha Doce Estrela
TTITLE9=Sabiá
TTITLE10=Você Endoideceu Meu Coração
TTITLE11=Doido Pra Te Amar
TTITLE12=Meu Bom Bom
TTITLE13=Sanfoneiro Quando É Bom
TTITLE14=Você Caiu Do Céu
TTITLE15=Será Que A Gente se Namora?
TTITLE16=Eu Nunca Esqueci Você
TTITLE17=Visgo Forte
TTITLE18=Folha, Rama, Cheiro E Flores
TTITLE19=Tá Gostoso
TTITLE20=Grude
EXTD=
EXTT0=
EXTT1=
EXTT2=
EXTT3=
EXTT4=
EXTT5=
EXTT6=
EXTT7=
EXTT8=
EXTT9=
EXTT10=
EXTT11=
EXTT12=
EXTT13=
EXTT14=
EXTT15=
EXTT16=
EXTT17=
EXTT18=
EXTT19=
EXTT20=
PLAYORDER=
